<svg id="Layer_1" data-name="Layer 1" xmlns="http://www.w3.org/2000/svg" viewBox="0 0 836 316.55"><defs><style>.cls-1{font-size:272.01px;font-family:Lato-Black, Lato;}.cls-2{font-size:50.5px;stroke-width:0.25px;font-family:Lato-Semibold, Lato;font-weight:700;letter-spacing:-0.01em;}.cls-10,.cls-2,.cls-8,.cls-9{stroke:#000;stroke-miterlimit:10;}.cls-3{letter-spacing:-0.02em;}.cls-4{letter-spacing:-0.04em;}.cls-5{letter-spacing:-0.01em;}.cls-6{letter-spacing:-0.03em;}.cls-7{letter-spacing:-0.01em;}.cls-8{fill:#fff;}.cls-10,.cls-8,.cls-9{stroke-width:2px;}.cls-9{fill:#55a5dc;}</style></defs><title>BFM_Logo_2018</title><text class="cls-1" transform="translate(0 235.08) scale(0.96 1)">BFM</text><text class="cls-2" transform="translate(14.83 282.58) scale(0.7 1)">BIOG<tspan class="cls-3" x="123.52" y="0">E</tspan><tspan x="151.47" y="0">OCHEMICA</tspan><tspan class="cls-4" x="420.77" y="0">L</tspan><tspan class="cls-5" x="444.99" y="0" xml:space="preserve"> F</tspan><tspan class="cls-6" x="485.41" y="0">L</tspan><tspan class="cls-7" x="509.98" y="0">UX MODE</tspan><tspan class="cls-4" x="746.18" y="0">L</tspan></text><path class="cls-8" d="M687.66,355c-.48-10.64.82-23.11,2.93-29.65,2.85-10,6.23-18.05,11.88-26C707.24,292.72,712,286,717.6,280a105.46,105.46,0,0,1,31.85-23.76,117.62,117.62,0,0,1,27.85-9.26,108.23,108.23,0,0,1,23.32-2.13A102.06,102.06,0,0,1,839,253.08a89.4,89.4,0,0,1,22.6,14.17A82.82,82.82,0,0,1,884.3,297.2a77.3,77.3,0,0,1,6.76,34.43,60.36,60.36,0,0,1-7.49,27.71,40.22,40.22,0,0,1-12.93,14.46c-3.24,2.11-6.65,3.94-10.76,4.34-5.1.51-9.49-4.72-8.63-9.21a64.72,64.72,0,0,1,2.87-10.06c3.34-9.2,5.41-18.56,4.66-28.44A49.67,49.67,0,0,0,853,311.24a50.89,50.89,0,0,0-10.51-14.39c-1-1-5.18-4.49-6.31-5.37a65,65,0,0,0-14.65-8,71.84,71.84,0,0,0-28.8-5.14,80.94,80.94,0,0,0-38.62,10.17,94.35,94.35,0,0,0-26.63,21.78c-34.91,36.48-33.8,71.89-34.91,69.5C687.66,369.07,687.83,355,687.66,355Z" transform="translate(-100 -195.23)"/><path class="cls-9" d="M880.22,236.82c9.45,4.92,19.57,12.31,24.17,17.42,7.19,7.46,12.48,14.45,16.5,23.31,3.38,7.49,6.84,15,9.23,22.85a105.19,105.19,0,0,1,4.55,39.48,117.44,117.44,0,0,1-6,28.73,108,108,0,0,1-9.87,21.24,102.11,102.11,0,0,1-26.45,29.06,89.24,89.24,0,0,1-23.59,12.44,83,83,0,0,1-37.29,4.57,77.29,77.29,0,0,1-33.17-11.45,60.24,60.24,0,0,1-20.2-20.39,40.22,40.22,0,0,1-6-18.43c-.19-3.87-.06-7.73,1.65-11.49,2.12-4.67,8.84-5.84,12.3-2.85a66.33,66.33,0,0,1,7.26,7.54c6.28,7.51,13.33,14,22.25,18.31a49.53,49.53,0,0,0,19.48,4.67A50.47,50.47,0,0,0,852.78,400c1.35-.42,6.49-2.22,7.81-2.75a65.27,65.27,0,0,0,14.27-8.66,72,72,0,0,0,18.91-22.33,81,81,0,0,0,10.59-38.51,94.22,94.22,0,0,0-5.47-34c-14-48.51-45.2-65.33-42.57-65.08C868.08,229.77,880.13,237,880.22,236.82Z" transform="translate(-100 -195.23)"/><path class="cls-10" d="M887.49,461.83c-8.94,5.8-20.36,11-27.07,12.47-10,2.58-18.72,3.75-28.41,2.88-8.18-.74-16.45-1.44-24.44-3.21A105.07,105.07,0,0,1,771,458.5a117.12,117.12,0,0,1-22.08-19.34,108,108,0,0,1-13.63-19A102.2,102.2,0,0,1,723,382.8a89.65,89.65,0,0,1,.79-26.66,83.05,83.05,0,0,1,14.38-34.71,77.31,77.31,0,0,1,26.29-23.24,60.35,60.35,0,0,1,27.69-7.55,40.2,40.2,0,0,1,19,3.84c3.46,1.73,6.76,3.75,9.19,7.09,3,4.14.73,10.57-3.58,12.11a66,66,0,0,1-10.13,2.6c-9.63,1.77-18.74,4.72-26.89,10.36a49.62,49.62,0,0,0-13.66,14.66A50.73,50.73,0,0,0,759,357.64c-.3,1.39-1.26,6.75-1.45,8.16a65,65,0,0,0,.52,16.68,71.61,71.61,0,0,0,10.13,27.45,81,81,0,0,0,28.3,28.18,94.41,94.41,0,0,0,32.26,11.95c49.12,11.67,79.11-7.19,77.6-5C899.59,454.74,887.4,461.69,887.49,461.83Z" transform="translate(-100 -195.23)"/></svg>