<svg id="Layer_1" data-name="Layer 1" xmlns="http://www.w3.org/2000/svg" viewBox="0 0 750.26 250.8"><defs><style>.cls-1,.cls-2,.cls-3,.cls-4{stroke:#000;stroke-miterlimit:10;}.cls-1{stroke-width:0.25px;}.cls-2{fill:#fff;}.cls-2,.cls-3,.cls-4{stroke-width:2px;}.cls-3{fill:#55a5dc;}</style></defs><title>BFM_Full_logo</title><path d="M473.73,286.05q17.11,0,29.13,3.31t19.61,9.32a35.22,35.22,0,0,1,11,14.64A51.2,51.2,0,0,1,537,332.57a39.08,39.08,0,0,1-1.59,11.15,32.85,32.85,0,0,1-5,10,39.73,39.73,0,0,1-8.73,8.56A54.06,54.06,0,0,1,508.87,369q16.32,4.14,24.14,13.35t7.82,23.84a51,51,0,0,1-4.08,20.43,46.54,46.54,0,0,1-12,16.46,55.85,55.85,0,0,1-19.43,11,81.33,81.33,0,0,1-26.41,4H413v-172Zm-22.44,29.87v42.5h19.95a63.2,63.2,0,0,0,11.45-.94,23.12,23.12,0,0,0,8.67-3.31,15,15,0,0,0,5.44-6.49,25.21,25.21,0,0,0,1.87-10.39,30.38,30.38,0,0,0-1.47-10.21,14.73,14.73,0,0,0-4.54-6.56A18.74,18.74,0,0,0,484.9,317a51.22,51.22,0,0,0-11.17-1.06Zm27,112a32.56,32.56,0,0,0,12.41-2,19.63,19.63,0,0,0,7.54-5.2,17.64,17.64,0,0,0,3.74-7.2,32.89,32.89,0,0,0,1-8.14,28.34,28.34,0,0,0-1.19-8.5,14.22,14.22,0,0,0-4.08-6.38,19.66,19.66,0,0,0-7.65-4,42.73,42.73,0,0,0-12-1.42H451.29V428Z" transform="translate(-128.56 -258.66)"/><path d="M603.29,316.75v43.56h56.44v30.81H603.29v66.94H564.75v-172H671.06v30.7Z" transform="translate(-128.56 -258.66)"/><path d="M878.82,286.05v172H845.05V359.13c0-2.28.05-4.76.17-7.44s.32-5.39.62-8.15L802,432a14.25,14.25,0,0,1-13.38,8.38h-5.21A14.25,14.25,0,0,1,770,432l-43.86-88.66c.23,2.83.41,5.61.57,8.32s.22,5.22.22,7.5v98.93H693.17v-172h29.24c1.66,0,3.12,0,4.36.12a10.7,10.7,0,0,1,3.35.71,7.48,7.48,0,0,1,2.66,1.83,14.34,14.34,0,0,1,2.32,3.48l42.51,87.24c1.51,3,3,6.1,4.36,9.33s2.74,6.53,4,9.92q1.92-5.21,4-10.16t4.48-9.44l42.39-86.89a14.34,14.34,0,0,1,2.32-3.48,7.48,7.48,0,0,1,2.66-1.83,10.64,10.64,0,0,1,3.35-.71c1.24-.08,2.7-.12,4.36-.12Z" transform="translate(-128.56 -258.66)"/><path class="cls-1" d="M419.84,467.73a10,10,0,0,1,3.62.58,6.34,6.34,0,0,1,2.48,1.66,6.62,6.62,0,0,1,1.41,2.62,12,12,0,0,1,.46,3.47,9.66,9.66,0,0,1-.24,2.16,7.41,7.41,0,0,1-.74,1.95,6.61,6.61,0,0,1-1.25,1.63A6.5,6.5,0,0,1,423.8,483q4.69,1.42,4.7,7.12a12.23,12.23,0,0,1-.53,3.69,8.47,8.47,0,0,1-1.54,2.9,6.89,6.89,0,0,1-2.47,1.89,7.88,7.88,0,0,1-3.36.68h-8.1V467.73Zm-3.75,4v9.86h3.59a4.36,4.36,0,0,0,3.43-1.27,5.28,5.28,0,0,0,1.14-3.66,5.49,5.49,0,0,0-1.07-3.77,4.34,4.34,0,0,0-3.34-1.16Zm4.44,23.5a4.65,4.65,0,0,0,2.05-.41,3.66,3.66,0,0,0,1.37-1.11,4.49,4.49,0,0,0,.77-1.65A8.94,8.94,0,0,0,425,490a5.36,5.36,0,0,0-1.06-3.52,4.16,4.16,0,0,0-3.37-1.28h-4.43v10Z" transform="translate(-128.56 -258.66)"/><path class="cls-1" d="M435.92,499.29h-3.6V467.73h3.6Z" transform="translate(-128.56 -258.66)"/><path class="cls-1" d="M461.71,483.51a24.5,24.5,0,0,1-.8,6.47,16.84,16.84,0,0,1-2.24,5.09,11,11,0,0,1-3.49,3.35,9.08,9.08,0,0,1-9,0,11.11,11.11,0,0,1-3.49-3.35,16.61,16.61,0,0,1-2.25-5.09,26.52,26.52,0,0,1,0-12.93,16.73,16.73,0,0,1,2.25-5.11,11,11,0,0,1,3.49-3.35,9,9,0,0,1,9,0,10.9,10.9,0,0,1,3.49,3.35,17,17,0,0,1,2.24,5.11A24.37,24.37,0,0,1,461.71,483.51Zm-3.66,0a21.45,21.45,0,0,0-.52-4.89,12,12,0,0,0-1.47-3.68,7,7,0,0,0-2.33-2.32,6.19,6.19,0,0,0-6.12,0,7.07,7.07,0,0,0-2.33,2.32,12.26,12.26,0,0,0-1.49,3.68,23.35,23.35,0,0,0,0,9.8,12,12,0,0,0,1.49,3.67,7,7,0,0,0,2.33,2.3,6.25,6.25,0,0,0,6.12,0,6.91,6.91,0,0,0,2.33-2.3,11.73,11.73,0,0,0,1.47-3.67A21.5,21.5,0,0,0,458.05,483.51Z" transform="translate(-128.56 -258.66)"/><path class="cls-1" d="M483.51,483.75v12.5a10.38,10.38,0,0,1-7.67,3.39,9.82,9.82,0,0,1-4.85-1.19,11.2,11.2,0,0,1-3.71-3.33,16.21,16.21,0,0,1-2.36-5.1,24.16,24.16,0,0,1-.83-6.51,25.25,25.25,0,0,1,.8-6.54,16.29,16.29,0,0,1,2.28-5.11,10.85,10.85,0,0,1,3.59-3.31,9.59,9.59,0,0,1,4.73-1.17,9.8,9.8,0,0,1,2.48.3,9.15,9.15,0,0,1,2.12.82,8.8,8.8,0,0,1,1.81,1.27,11.56,11.56,0,0,1,1.52,1.67l-1,2.34a1.12,1.12,0,0,1-.63.68.82.82,0,0,1-.82-.26l-.95-.79a7.12,7.12,0,0,0-1.14-.78,6.52,6.52,0,0,0-1.49-.59,7.35,7.35,0,0,0-2-.23,6.13,6.13,0,0,0-3.16.82,7.42,7.42,0,0,0-2.4,2.34,12.15,12.15,0,0,0-1.53,3.7,20,20,0,0,0-.54,4.84,20.35,20.35,0,0,0,.57,5.05,11.85,11.85,0,0,0,1.61,3.77,7.33,7.33,0,0,0,2.52,2.36,6.79,6.79,0,0,0,3.31.81,6.58,6.58,0,0,0,2.43-.42,9.12,9.12,0,0,0,2.1-1.16v-6.27h-3.09a.65.65,0,0,1-.55-.27,1.19,1.19,0,0,1-.2-.71v-2.92Z" transform="translate(-128.56 -258.66)"/><path class="cls-1" d="M501.34,495.15l0,4.14H487.55V467.73h13.77v4.14H491.15v9.52h8.13v4h-8.13v9.75Z" transform="translate(-128.56 -258.66)"/><path class="cls-1" d="M525.29,483.51a24.93,24.93,0,0,1-.8,6.47,16.61,16.61,0,0,1-2.25,5.09,10.87,10.87,0,0,1-3.48,3.35,9.08,9.08,0,0,1-9,0,11.11,11.11,0,0,1-3.49-3.35A16.61,16.61,0,0,1,504,490a26.52,26.52,0,0,1,0-12.93,16.73,16.73,0,0,1,2.25-5.11,11,11,0,0,1,3.49-3.35,9,9,0,0,1,9,0,10.77,10.77,0,0,1,3.48,3.35,16.73,16.73,0,0,1,2.25,5.11A24.79,24.79,0,0,1,525.29,483.51Zm-3.67,0a21.48,21.48,0,0,0-.51-4.89,12,12,0,0,0-1.47-3.68,7,7,0,0,0-2.33-2.32,6.18,6.18,0,0,0-6.12,0,7,7,0,0,0-2.33,2.32,12,12,0,0,0-1.49,3.68,23.35,23.35,0,0,0,0,9.8,11.74,11.74,0,0,0,1.49,3.67,6.91,6.91,0,0,0,2.33,2.3,6.25,6.25,0,0,0,6.12,0,6.91,6.91,0,0,0,2.33-2.3,11.73,11.73,0,0,0,1.47-3.67A21.53,21.53,0,0,0,521.62,483.51Z" transform="translate(-128.56 -258.66)"/><path class="cls-1" d="M544.34,492.26a.61.61,0,0,1,.51.32l1.43,2.22a10.28,10.28,0,0,1-3.32,3.58,8.49,8.49,0,0,1-4.69,1.26,8.18,8.18,0,0,1-4.38-1.19,10.51,10.51,0,0,1-3.34-3.33,16.9,16.9,0,0,1-2.12-5.1,26.45,26.45,0,0,1-.75-6.51,25.6,25.6,0,0,1,.79-6.52,17,17,0,0,1,2.23-5.11,10.72,10.72,0,0,1,3.43-3.32,8.62,8.62,0,0,1,4.41-1.18,8,8,0,0,1,4.23,1.11,11.14,11.14,0,0,1,3.19,2.95l-1.19,2.38a1.64,1.64,0,0,1-.29.42.59.59,0,0,1-.46.18,1.09,1.09,0,0,1-.7-.41,11.92,11.92,0,0,0-1-.9,6.78,6.78,0,0,0-1.52-.9,5.64,5.64,0,0,0-2.28-.4,5.52,5.52,0,0,0-2.9.79,6.75,6.75,0,0,0-2.27,2.3,12.15,12.15,0,0,0-1.48,3.68,21,21,0,0,0-.53,4.93,20.26,20.26,0,0,0,.55,5,12.58,12.58,0,0,0,1.52,3.68,7.19,7.19,0,0,0,2.27,2.29,5.4,5.4,0,0,0,2.81.79,8.28,8.28,0,0,0,1.65-.15,4.62,4.62,0,0,0,1.34-.46,5.23,5.23,0,0,0,1.16-.8,8.42,8.42,0,0,0,1.08-1.18A.84.84,0,0,1,544.34,492.26Z" transform="translate(-128.56 -258.66)"/><path class="cls-1" d="M567.46,467.73v31.56h-3.58V485.24h-11.1v14.05h-3.6V467.73h3.6v13.81h11.1V467.73Z" transform="translate(-128.56 -258.66)"/><path class="cls-1" d="M586.3,495.15v4.14H572.51V467.73h13.78v4.14H576.12v9.52h8.13v4h-8.13v9.75Z" transform="translate(-128.56 -258.66)"/><path class="cls-1" d="M613.47,467.73v31.56h-3.16V477.66c0-.35,0-.73,0-1.15s0-.84.06-1.26L603.3,494c-.27.77-.7,1.16-1.27,1.16h-.51c-.58,0-1-.39-1.27-1.16L593,475.21c0,.42.05.84.07,1.27s0,.81,0,1.18v21.63H590V467.73h2.68a1.81,1.81,0,0,1,.74.12,1.29,1.29,0,0,1,.48.74L601,486.93c.16.42.3.86.44,1.3s.26.91.38,1.37c.12-.46.25-.93.39-1.39s.28-.9.44-1.32l7-18.3a1.24,1.24,0,0,1,.47-.74,1.84,1.84,0,0,1,.74-.12Z" transform="translate(-128.56 -258.66)"/><path class="cls-1" d="M622.11,499.29h-3.6V467.73h3.6Z" transform="translate(-128.56 -258.66)"/><path class="cls-1" d="M642.49,492.26a.61.61,0,0,1,.5.32l1.43,2.22a10.35,10.35,0,0,1-3.31,3.58,8.53,8.53,0,0,1-4.7,1.26,8.18,8.18,0,0,1-4.38-1.19,10.61,10.61,0,0,1-3.34-3.33,16.9,16.9,0,0,1-2.12-5.1,26.45,26.45,0,0,1-.75-6.51,25.6,25.6,0,0,1,.79-6.52,17,17,0,0,1,2.23-5.11,10.75,10.75,0,0,1,3.44-3.32,8.57,8.57,0,0,1,4.41-1.18,8,8,0,0,1,4.22,1.11,10.89,10.89,0,0,1,3.19,2.95l-1.18,2.38a1.67,1.67,0,0,1-.3.42.59.59,0,0,1-.46.18,1.07,1.07,0,0,1-.69-.41,12.23,12.23,0,0,0-1-.9,6.78,6.78,0,0,0-1.52-.9,5.64,5.64,0,0,0-2.28-.4,5.52,5.52,0,0,0-2.9.79,6.75,6.75,0,0,0-2.27,2.3,12.41,12.41,0,0,0-1.48,3.68,21,21,0,0,0-.53,4.93,20.76,20.76,0,0,0,.55,5,12.58,12.58,0,0,0,1.52,3.68,7.19,7.19,0,0,0,2.27,2.29,5.4,5.4,0,0,0,2.81.79,8.28,8.28,0,0,0,1.65-.15,4.52,4.52,0,0,0,1.34-.46,5.23,5.23,0,0,0,1.16-.8,8.42,8.42,0,0,0,1.08-1.18A.84.84,0,0,1,642.49,492.26Z" transform="translate(-128.56 -258.66)"/><path class="cls-1" d="M665.81,499.29H663a1,1,0,0,1-.77-.34,2.31,2.31,0,0,1-.44-.84l-1.84-7h-9.52l-1.84,7a2.12,2.12,0,0,1-.43.81.94.94,0,0,1-.76.37h-2.78l8.76-31.56h3.64ZM659,487.46l-3-11.53c-.24-.89-.49-2-.75-3.4-.11.69-.24,1.32-.37,1.9s-.25,1.08-.37,1.52l-3,11.51Z" transform="translate(-128.56 -258.66)"/><path class="cls-1" d="M680.93,495v4.29H668.17V467.73h3.59V495Z" transform="translate(-128.56 -258.66)"/><path class="cls-1" d="M693.91,471.87V482h8.64v4.14h-8.64v13.17h-3.6V467.73h13.77v4.14Z" transform="translate(-128.56 -258.66)"/><path class="cls-1" d="M720.21,495v4.29H707.44V467.73H711V495Z" transform="translate(-128.56 -258.66)"/><path class="cls-1" d="M731.08,495.15a4.28,4.28,0,0,0,2.28-.61,5.37,5.37,0,0,0,1.71-1.71,8.58,8.58,0,0,0,1.06-2.64,14.6,14.6,0,0,0,.37-3.43v-19h3.57v19a20,20,0,0,1-.62,5.15,13.23,13.23,0,0,1-1.78,4.08,8.79,8.79,0,0,1-2.84,2.7,7.66,7.66,0,0,1-7.5,0,8.76,8.76,0,0,1-2.83-2.7,13.24,13.24,0,0,1-1.79-4.08,20.48,20.48,0,0,1-.62-5.15v-19h3.59v19a15.09,15.09,0,0,0,.37,3.43,9.07,9.07,0,0,0,1.06,2.66,5.28,5.28,0,0,0,1.7,1.72A4.24,4.24,0,0,0,731.08,495.15Z" transform="translate(-128.56 -258.66)"/><path class="cls-1" d="M762.29,499.29h-3.58a.72.72,0,0,1-.59-.28,2.14,2.14,0,0,1-.37-.64l-5.5-12.64c0,.17-.08.34-.13.5a2.51,2.51,0,0,1-.16.46l-5.3,11.68a4.33,4.33,0,0,1-.38.64.64.64,0,0,1-.54.28h-3.35l7.46-16.22-7.15-15.34h3.56a.81.81,0,0,1,.56.17,1.38,1.38,0,0,1,.31.49l5.37,12.05.15-.52c.06-.18.12-.36.2-.55l5-10.89a1.68,1.68,0,0,1,.33-.56.6.6,0,0,1,.45-.19h3.42l-7.21,15.12Z" transform="translate(-128.56 -258.66)"/><path class="cls-1" d="M795.81,467.73v31.56h-3.16V477.66c0-.35,0-.73,0-1.15s0-.84.07-1.26L785.64,494c-.28.77-.7,1.16-1.27,1.16h-.51c-.58,0-1-.39-1.28-1.16l-7.21-18.78c0,.42.06.84.07,1.27s0,.81,0,1.18v21.63h-3.16V467.73H775a1.84,1.84,0,0,1,.74.12,1.24,1.24,0,0,1,.47.74l7.09,18.34c.15.42.3.86.44,1.3s.26.91.37,1.37c.13-.46.26-.93.4-1.39s.28-.9.43-1.32l7-18.3c.15-.41.3-.66.48-.74a1.79,1.79,0,0,1,.73-.12Z" transform="translate(-128.56 -258.66)"/><path class="cls-1" d="M821.6,483.51a24.93,24.93,0,0,1-.8,6.47,16.61,16.61,0,0,1-2.25,5.09,10.87,10.87,0,0,1-3.48,3.35,9.08,9.08,0,0,1-9,0,11.11,11.11,0,0,1-3.49-3.35,16.61,16.61,0,0,1-2.25-5.09,26.52,26.52,0,0,1,0-12.93,16.73,16.73,0,0,1,2.25-5.11,11,11,0,0,1,3.49-3.35,9,9,0,0,1,9,0,10.77,10.77,0,0,1,3.48,3.35,16.73,16.73,0,0,1,2.25,5.11A24.79,24.79,0,0,1,821.6,483.51Zm-3.67,0a21.48,21.48,0,0,0-.51-4.89,12,12,0,0,0-1.47-3.68,7,7,0,0,0-2.33-2.32,6.18,6.18,0,0,0-6.12,0,7,7,0,0,0-2.33,2.32,12,12,0,0,0-1.49,3.68,23.35,23.35,0,0,0,0,9.8,11.74,11.74,0,0,0,1.49,3.67,6.91,6.91,0,0,0,2.33,2.3,6.25,6.25,0,0,0,6.12,0,6.91,6.91,0,0,0,2.33-2.3,11.73,11.73,0,0,0,1.47-3.67A21.53,21.53,0,0,0,817.93,483.51Z" transform="translate(-128.56 -258.66)"/><path class="cls-1" d="M844.7,483.51a24.2,24.2,0,0,1-.79,6.41,16.48,16.48,0,0,1-2.25,5,10.67,10.67,0,0,1-3.48,3.23,9,9,0,0,1-4.52,1.15h-8.35V467.73h8.35a9.12,9.12,0,0,1,4.52,1.15,10.7,10.7,0,0,1,3.48,3.24,16.42,16.42,0,0,1,2.25,5A24.26,24.26,0,0,1,844.7,483.51Zm-3.66,0a20.9,20.9,0,0,0-.52-4.89,11.77,11.77,0,0,0-1.47-3.66,7,7,0,0,0-2.32-2.29,6,6,0,0,0-3.07-.8h-4.74v23.28h4.74a6,6,0,0,0,3.07-.79,6.85,6.85,0,0,0,2.32-2.29,11.77,11.77,0,0,0,1.47-3.66A20.81,20.81,0,0,0,841,483.51Z" transform="translate(-128.56 -258.66)"/><path class="cls-1" d="M862.22,495.15v4.14H848.43V467.73h13.78v4.14H852v9.52h8.13v4H852v9.75Z" transform="translate(-128.56 -258.66)"/><path class="cls-1" d="M878.66,495v4.29H865.89V467.73h3.59V495Z" transform="translate(-128.56 -258.66)"/><path class="cls-2" d="M129.66,386c-.48-10.64.82-23.11,2.93-29.65,2.85-10,6.23-18.05,11.88-26C149.24,323.72,154,317,159.6,311a105.46,105.46,0,0,1,31.85-23.76,117.62,117.62,0,0,1,27.85-9.26,108.23,108.23,0,0,1,23.32-2.13A102.06,102.06,0,0,1,281,284.08a89.4,89.4,0,0,1,22.6,14.17A82.82,82.82,0,0,1,326.3,328.2a77.3,77.3,0,0,1,6.76,34.43,60.36,60.36,0,0,1-7.49,27.71,40.22,40.22,0,0,1-12.93,14.46c-3.24,2.11-6.65,3.94-10.76,4.34-5.1.51-9.49-4.72-8.63-9.21a64.72,64.72,0,0,1,2.87-10.06c3.34-9.2,5.41-18.56,4.66-28.44A49.67,49.67,0,0,0,295,342.24a50.89,50.89,0,0,0-10.51-14.39c-1-1-5.18-4.49-6.31-5.37a65,65,0,0,0-14.65-8,71.84,71.84,0,0,0-28.8-5.14,80.94,80.94,0,0,0-38.62,10.17,94.35,94.35,0,0,0-26.63,21.78c-34.91,36.48-33.8,71.89-34.91,69.5C129.66,400.07,129.83,386,129.66,386Z" transform="translate(-128.56 -258.66)"/><path class="cls-3" d="M322.22,267.82c9.45,4.92,19.57,12.31,24.17,17.42,7.19,7.46,12.48,14.45,16.5,23.31,3.38,7.49,6.84,15,9.23,22.85a105.19,105.19,0,0,1,4.55,39.48,117.44,117.44,0,0,1-6,28.73,108,108,0,0,1-9.87,21.24,102.11,102.11,0,0,1-26.45,29.06,89.24,89.24,0,0,1-23.59,12.44,83,83,0,0,1-37.29,4.57,77.29,77.29,0,0,1-33.17-11.45,60.24,60.24,0,0,1-20.2-20.39,40.22,40.22,0,0,1-6-18.43c-.19-3.87-.06-7.73,1.65-11.49,2.12-4.67,8.84-5.84,12.3-2.85a66.33,66.33,0,0,1,7.26,7.54c6.28,7.51,13.33,14,22.25,18.31a49.53,49.53,0,0,0,19.48,4.67A50.47,50.47,0,0,0,294.78,431c1.35-.42,6.49-2.22,7.81-2.75a65.27,65.27,0,0,0,14.27-8.66,72,72,0,0,0,18.91-22.33,81,81,0,0,0,10.59-38.51,94.22,94.22,0,0,0-5.47-34c-14-48.51-45.2-65.33-42.57-65.08C310.08,260.77,322.13,268,322.22,267.82Z" transform="translate(-128.56 -258.66)"/><path class="cls-4" d="M329.49,492.83c-8.94,5.8-20.36,11-27.07,12.47-10,2.58-18.72,3.75-28.41,2.88-8.18-.74-16.45-1.44-24.44-3.21A105.07,105.07,0,0,1,213,489.5a117.12,117.12,0,0,1-22.08-19.34,108,108,0,0,1-13.63-19A102.2,102.2,0,0,1,165,413.8a89.65,89.65,0,0,1,.79-26.66,83.05,83.05,0,0,1,14.38-34.71,77.31,77.31,0,0,1,26.29-23.24,60.35,60.35,0,0,1,27.69-7.55,40.2,40.2,0,0,1,19,3.84c3.46,1.73,6.76,3.75,9.19,7.09,3,4.14.73,10.57-3.58,12.11a66,66,0,0,1-10.13,2.6c-9.63,1.77-18.74,4.72-26.89,10.36a49.62,49.62,0,0,0-13.66,14.66A50.73,50.73,0,0,0,201,388.64c-.3,1.39-1.26,6.75-1.45,8.16a65,65,0,0,0,.52,16.68,71.61,71.61,0,0,0,10.13,27.45,81,81,0,0,0,28.3,28.18,94.41,94.41,0,0,0,32.26,11.95c49.12,11.67,79.11-7.19,77.6-5C341.59,485.74,329.4,492.69,329.49,492.83Z" transform="translate(-128.56 -258.66)"/></svg>