<?xml version="1.0" encoding="utf-8"?>
<!-- Generator: Adobe Illustrator 22.1.0, SVG Export Plug-In . SVG Version: 6.00 Build 0)  -->
<svg version="1.1" id="Layer_1" xmlns="http://www.w3.org/2000/svg" xmlns:xlink="http://www.w3.org/1999/xlink" x="0px" y="0px"
	 viewBox="0 0 1024 768" style="enable-background:new 0 0 1024 768;" xml:space="preserve">
<style type="text/css">
	.st0{font-family:'Lato-Black';}
	.st1{font-size:236.1136px;}
	.st2{stroke:#000000;stroke-width:0.25;stroke-miterlimit:10;}
	.st3{font-family:'Lato-Semibold';}
	.st4{font-size:43.8342px;}
	.st5{fill:#FFFFFF;stroke:#000000;stroke-width:2;stroke-miterlimit:10;}
	.st6{fill:#55A5DC;stroke:#000000;stroke-width:2;stroke-miterlimit:10;}
	.st7{stroke:#000000;stroke-width:2;stroke-miterlimit:10;}
</style>
<text transform="matrix(0.9601 0 0 1 397 458.0596)" class="st0 st1">BFM</text>
<text transform="matrix(0.7 0 0 1 409.8721 499.292)" class="st2 st3 st4">BIOGEOCHEMICAL FLUX MODEL</text>
<g>
	<path class="st5" d="M129.7,386c-0.5-10.6,0.8-23.1,2.9-29.7c2.9-10,6.2-18,11.9-26c4.8-6.7,9.6-13.5,15.1-19.5
		c9.1-9.8,19.7-18,31.9-23.8c8.9-4.2,18.1-7.3,27.8-9.3c7.7-1.5,15.5-2.3,23.3-2.1c13.3,0.3,26.2,3,38.4,8.3
		c8.2,3.5,15.7,8.3,22.6,14.2c9.8,8.3,17.5,18.3,22.7,30c4.8,10.9,7.2,22.3,6.8,34.4c-0.4,9.9-2.7,19.1-7.5,27.7
		c-3.2,5.7-7.4,10.8-12.9,14.5c-3.2,2.1-6.7,3.9-10.8,4.3c-5.1,0.5-9.5-4.7-8.6-9.2c0.6-3.4,1.7-6.8,2.9-10.1
		c3.3-9.2,5.4-18.6,4.7-28.4c-0.5-6.8-2.6-13.2-5.7-19.2c-2.8-5.3-6.1-10.3-10.5-14.4c-1-1-5.2-4.5-6.3-5.4c-3.7-2.9-8.7-5.5-14.7-8
		c-9.2-3.8-18.9-5.3-28.8-5.1c-13.7,0.2-26.5,3.5-38.6,10.2c-10.3,5.7-19.1,12.9-26.6,21.8c-34.9,36.5-33.8,71.9-34.9,69.5
		C129.7,400.1,129.8,386,129.7,386z"/>
	<path class="st6" d="M322.2,267.8c9.4,4.9,19.6,12.3,24.2,17.4c7.2,7.5,12.5,14.5,16.5,23.3c3.4,7.5,6.8,15,9.2,22.9
		c3.9,12.8,5.7,26,4.6,39.5c-0.8,9.8-2.8,19.4-6,28.7c-2.6,7.5-5.8,14.5-9.9,21.2c-6.9,11.4-15.8,21.1-26.4,29.1
		c-7.2,5.3-15.1,9.4-23.6,12.4c-12.1,4.3-24.6,6-37.3,4.6c-11.8-1.3-22.9-5-33.2-11.4c-8.4-5.3-15.2-11.9-20.2-20.4
		c-3.4-5.7-5.7-11.8-6-18.4c-0.2-3.9-0.1-7.7,1.6-11.5c2.1-4.7,8.8-5.8,12.3-2.8c2.6,2.3,5,4.9,7.3,7.5c6.3,7.5,13.3,14,22.3,18.3
		c6.2,3,12.7,4.3,19.5,4.7c6,0.3,11.9-0.1,17.7-1.9c1.4-0.4,6.5-2.2,7.8-2.8c4.3-1.7,9.2-4.8,14.3-8.7c7.9-6,14.1-13.7,18.9-22.3
		c6.7-11.9,10.3-24.7,10.6-38.5c0.3-11.7-1.6-23-5.5-34c-14-48.5-45.2-65.3-42.6-65.1C310.1,260.8,322.1,268,322.2,267.8z"/>
	<path class="st7" d="M329.5,492.8c-8.9,5.8-20.4,11-27.1,12.5c-10,2.6-18.7,3.8-28.4,2.9c-8.2-0.7-16.4-1.4-24.4-3.2
		c-13.1-2.9-25.4-7.9-36.6-15.5c-8.1-5.5-15.5-11.9-22.1-19.3c-5.2-5.9-9.8-12.2-13.6-19c-6.5-11.7-10.6-24.1-12.3-37.3
		c-1.1-8.9-0.8-17.8,0.8-26.7c2.2-12.6,6.9-24.4,14.4-34.7c7-9.6,15.6-17.5,26.3-23.2c8.7-4.7,17.9-7.4,27.7-7.6
		c6.6-0.1,13.1,0.9,19,3.8c3.5,1.7,6.8,3.8,9.2,7.1c3,4.1,0.7,10.6-3.6,12.1c-3.3,1.2-6.7,2-10.1,2.6c-9.6,1.8-18.7,4.7-26.9,10.4
		c-5.6,3.9-10,8.9-13.7,14.7c-3.2,5.1-5.8,10.4-7.1,16.3c-0.3,1.4-1.3,6.7-1.4,8.2c-0.6,4.6-0.4,10.3,0.5,16.7
		c1.3,9.9,5,19,10.1,27.4c7.1,11.7,16.4,21.1,28.3,28.2c10.1,6,20.8,9.9,32.3,12c49.1,11.7,79.1-7.2,77.6-5
		C341.6,485.7,329.4,492.7,329.5,492.8z"/>
</g>
</svg>
